<svg version="1.1" id="Layer_1" xmlns="http://www.w3.org/2000/svg" xmlns:xlink="http://www.w3.org/1999/xlink" x="0px" y="0px"
	 width="100%" viewBox="0 0 256 256" enable-background="new 0 0 256 256" xml:space="preserve">
<path fill="#F4D12B" opacity="1.000000" stroke="none"
	d="
M45.128021,72.041672
	C73.182709,72.003700 100.842552,71.956047 128.501480,72.093002
	C130.559723,72.103195 133.230789,72.844856 134.571671,74.246475
	C150.467255,90.862053 166.187408,107.645996 181.889069,124.446045
	C184.428864,127.163490 186.654404,130.174622 189.532379,133.665115
	C165.769180,132.835220 142.689667,132.029205 118.380608,131.180252
	C150.688278,146.994965 182.009094,162.326614 214.028030,178.000000
	C207.192169,178.000000 200.994812,178.000000 194.797440,178.000000
	C172.803040,178.000000 150.807617,177.893387 128.815277,178.106201
	C125.199394,178.141174 122.942581,176.781021 120.777596,174.310028
	C115.353928,168.119751 109.952797,161.903549 104.342842,155.883942
	C92.945557,143.654388 81.414070,131.549942 69.950996,119.381577
	C69.543594,118.949097 69.275581,118.385300 68.300529,116.913582
	C91.891418,117.746117 114.593102,118.547279 137.294785,119.348434
	C137.403915,118.983292 137.513062,118.618141 137.622192,118.252998
	C129.696762,114.490616 121.725975,110.820419 113.854538,106.948303
	C91.708733,96.054306 69.600174,85.084549 47.494518,74.109238
	C46.486324,73.608681 45.649555,72.762833 45.128021,72.041672
z"/>
<path fill="#FFFFFF" opacity="1.000000" stroke="none"
	d="
M50.245628,139.408875
	C49.716324,142.030136 49.399410,144.272659 48.957455,147.399948
	C59.047073,146.052765 68.909492,144.735931 78.771904,143.419083
	C78.907600,143.760971 79.043304,144.102859 79.179001,144.444748
	C61.177395,151.148499 43.175789,157.852264 24.121944,164.947876
	C30.328251,140.350555 36.378426,116.372032 42.703457,91.304184
	C57.564548,97.050995 72.394753,102.785866 87.224960,108.520737
	C87.114105,108.887466 87.003242,109.254196 86.892380,109.620926
	C77.416664,108.367722 67.940948,107.114517 58.376564,105.849586
	C55.672161,117.181656 53.065086,128.105881 50.245628,139.408875
z"/>
<path fill="#FFFFFF" opacity="1.000000" stroke="none"
	d="
M232.000092,93.973846
	C227.331650,112.612556 222.662308,130.820633 218.003036,149.031296
	C217.166611,152.300461 216.371857,155.580276 215.458862,159.253510
	C200.599411,153.557587 185.787659,147.879944 170.975922,142.202301
	C171.038712,141.834473 171.101517,141.466660 171.164322,141.098831
	C180.575943,142.297974 189.987579,143.497101 199.859619,144.754913
	C203.062408,131.109833 206.322647,117.220024 209.661957,102.993355
	C199.579346,104.420647 189.513077,105.845619 179.446808,107.270592
	C179.332153,106.869247 179.217514,106.467911 179.102859,106.066566
	C196.968994,99.436165 214.835114,92.805756 233.422348,85.907738
	C232.881241,88.818199 232.441925,91.181145 232.000092,93.973846
z"/>
</svg>
